HIERARCHY
ROOT pelvis
{
  OFFSET 0 100 0
  CHANNELS 6 Xposition Yposition Zposition Zrotation Xrotation Yrotation
  JOINT pelvis_right_femur
  {
    OFFSET -10.78128 -3.44521 -0.5502486
    CHANNELS 3 Zrotation Xrotation Yrotation
    JOINT right_femur_tibia
    {
      OFFSET -0.8047443 -44.0398 -0.1307829
      CHANNELS 3 Zrotation Xrotation Yrotation
      JOINT right_tibia_foot
      {
        OFFSET 3.006224 -47.83518 -5
        CHANNELS 3 Zrotation Xrotation Yrotation
        End Site
        {
          OFFSET 0 -5 15
        }
      }
    }
  }
  JOINT pelvis_left_femur
  {
    OFFSET 10.78128 -3.44521 -0.5502486
    CHANNELS 3 Zrotation Xrotation Yrotation
    JOINT left_femur_tibia
    {
      OFFSET 0.8047443 -44.0398 -0.1307829
      CHANNELS 3 Zrotation Xrotation Yrotation
      JOINT left_tibia_foot
      {
        OFFSET -4.370144 -48.10324 -4.275266
        CHANNELS 3 Zrotation Xrotation Yrotation
        End Site
        {
          OFFSET 0 -5 15
        }
      }
    }
  }
  JOINT pelvis_spine1
  {
    OFFSET 0 6.468898 -3.129235
    CHANNELS 3 Zrotation Xrotation Yrotation
    JOINT spine1
    {
      OFFSET 0 23.15396 4.99043
      CHANNELS 3 Zrotation Xrotation Yrotation
      JOINT spine2
      {
        OFFSET 0 20.79997 -5.064912
        CHANNELS 3 Zrotation Xrotation Yrotation
        JOINT neck
        {
          OFFSET 0 14.38658 9.616178
          CHANNELS 3 Zrotation Xrotation Yrotation
          End Site
          {
            OFFSET 0 20 0
          }
        }
      }
      JOINT right_manubrium
      {
        OFFSET -5.722621 16.35077 3.967754
        CHANNELS 3 Zrotation Xrotation Yrotation
        JOINT right_clavicle
        {
          OFFSET -13.16364 1.694482 -4.693211
          CHANNELS 3 Zrotation Xrotation Yrotation
          JOINT right_humerus
          {
            OFFSET -28.5034 -0.3100689 -2.792744
            CHANNELS 3 Zrotation Xrotation Yrotation
            JOINT right_radius
            {
              OFFSET -25.15693 0.02248979 -1.271978
              CHANNELS 3 Zrotation Xrotation Yrotation
              End Site
              {
                OFFSET -15 0 0
              }
            }
          }
        }
      }
      JOINT left_manubrium
      {
        OFFSET 5.722621 16.35077 3.967754
        CHANNELS 3 Zrotation Xrotation Yrotation
        JOINT left_clavicle
        {
          OFFSET 13.16364 1.694482 -4.693211
          CHANNELS 3 Zrotation Xrotation Yrotation
          JOINT left_humerus
          {
            OFFSET 29.39168 -1.063119 -2.237045
            CHANNELS 3 Zrotation Xrotation Yrotation
            JOINT left_radius
            {
              OFFSET 24.59957 -0.9528479 0.9047498
              CHANNELS 3 Zrotation Xrotation Yrotation
              End Site
              {
                OFFSET 15 -0 -0
              }
            }
          }
        }
      }
    }
  }
}
MOTION
Frames: 17
Frame Time: 0.0416666666667
0 103.5113 0 1.566461 -3.544239 0.1725373 1.243146 -10.28726 7.011691 -0 40.13965 -0 -6.686859 -15.9896 -3.928304 -6.61375 12.40563 -24.34707 -0 5.657429 -0 -0.06118138 -19.14406 23.12304 -0.2076344 -1.747384 4.134427 -0.5090208 7.148896 -7.038404 2.190001 22.09174 7.59842 5.679355 -20.88664 8.325604 6.220458 -17.91317 9.831487 87.89928 36.24825 -23.00454 -0 0 17.45989 -6.275642 8.333397 1.968151 8.040192 -20.93709 -2.029069 -99.86025 42.07195 26.82236 0 0 -25.48205 -8.929447 19.97924 27.57924
0.1530642 103.6561 1.309512 0.8923186 -2.837666 0.1921122 2.344083 -12.97478 8.238481 -0 42.05208 -0 -6.296749 -15.57589 -4.865465 -6.020136 12.68525 -24.54509 -0 6.076418 -0 -1.844126 -20.45997 22.62596 -0.1413228 -1.707272 4.139459 -0.4445938 7.231603 -7.116425 2.146191 21.99338 7.670105 5.687619 -21.02149 8.356321 6.199149 -17.86358 9.874485 88.18731 36.35357 -23.28945 -0 0 17.20606 -6.280438 8.451905 1.980802 8.039476 -21.08114 -2.043117 -99.6493 41.85442 26.65017 0 0 -25.66285 -8.732972 19.73439 27.42877
0.2947134 103.6876 2.857539 0.188842 -2.015715 0.1734541 3.521878 -17.3227 7.763394 -0 39.59301 -0 -6.703046 -13.01041 -4.570252 -5.583978 12.68009 -23.40533 -0 6.468022 -0 -1.94444 -21.6324 21.96231 -0.2149912 -1.464183 3.987441 0.0261599 7.363354 -7.334939 1.870266 21.89816 7.89853 5.569269 -21.59746 8.402834 6.132494 -17.61903 10.11245 88.60944 36.70555 -23.62699 -0 0 16.0294 -7.105886 9.179473 2.590651 7.631421 -21.22063 -2.229479 -98.56188 40.813 25.74806 0 0 -25.61093 -8.075751 18.76057 26.62194
0.4308539 103.5829 4.641336 -0.3888465 -0.9575695 0.148858 4.580845 -21.66451 7.526732 -0 36.54296 -0 -6.781889 -11.23182 -4.351286 -5.277102 12.68415 -22.37793 -0 6.528098 -0 -1.573305 -22.61543 21.39869 -0.2117031 -1.365331 3.947449 0.2069478 7.452324 -7.441972 1.758356 21.8165 8.005711 5.533241 -21.84125 8.427752 6.097969 -17.51847 10.21104 88.87632 36.8776 -23.85548 -0 0 15.52182 -7.424653 9.49821 2.821015 7.49769 -21.34007 -2.294808 -98.08049 40.32796 25.35136 0 0 -25.68634 -7.740711 18.31059 26.25517
0.5740781 103.2583 6.769293 -0.7784421 0.2195221 0.1337808 5.372454 -26.05051 6.936478 -0 31.84797 -0 -6.783604 -9.484524 -3.842529 -5.172059 12.71574 -21.13634 -0 6.477707 -0 -0.4463004 -23.37622 20.90383 -0.2063419 -1.244709 3.887036 0.4431042 7.563878 -7.586389 1.62142 21.71014 8.130953 5.480496 -22.15125 8.459031 6.053562 -17.38939 10.33703 89.22456 37.03649 -24.17412 -0 0 14.89067 -7.774237 9.853589 3.096203 7.325737 -21.48366 -2.386912 -97.48625 39.73392 24.85144 0 0 -25.8036 -7.344875 17.73184 25.8132
0.7199783 102.7012 9.323634 -1.0516 1.508868 0.1557334 6.043403 -30.32598 6.400037 -0 26.53865 -0 -6.615939 -7.890596 -3.348545 -5.16233 12.93073 -19.94685 -0 6.564872 -0 0.8673372 -24.02903 20.42188 -0.1924292 -1.148166 3.837143 0.6378197 7.663594 -7.714694 1.512037 21.60995 8.232066 5.437128 -22.40853 8.486491 6.015293 -17.28144 10.44098 89.54142 37.14338 -24.47644 -0 0 14.37027 -8.025687 10.12604 3.306654 7.192909 -21.61446 -2.464403 -96.99581 39.24208 24.43249 0 0 -25.93932 -7.016401 17.23977 25.45142
0.8595438 101.9356 12.40467 -1.2174 2.718722 0.2550713 6.557094 -33.98128 5.853764 -0 21.22274 -0 -6.413489 -6.222521 -2.872795 -5.209046 13.41137 -18.87143 -0 7.142507 -0 1.927143 -24.49382 19.80061 -0.1922289 -1.049011 3.780824 0.8430937 7.758649 -7.842275 1.399124 21.5178 8.32731 5.384643 -22.66723 8.508798 5.976025 -17.17225 10.54916 89.83031 37.23225 -24.74999 -0 0 13.84435 -8.307243 10.40056 3.543908 7.042366 -21.72824 -2.549118 -96.48979 38.73011 23.99849 0 0 -26.05448 -6.689008 16.73486 25.07364
0.9830389 101.0558 16.10058 -1.349058 3.697924 0.4901607 6.972685 -36.48744 5.370854 -0 16.82935 -0 -6.257824 -4.532791 -2.513255 -5.214255 14.20166 -18.03535 -0 8.559139 -0 2.009111 -24.66674 18.72029 -0.2163666 -0.9530148 3.723943 1.043718 7.837368 -7.951904 1.28859 21.45018 8.407471 5.323945 -22.90309 8.519742 5.938672 -17.07317 10.65429 90.03738 37.30634 -24.93305 -0 0 13.35655 -8.638083 10.67108 3.813169 6.875434 -21.80381 -2.634552 -96.00149 38.22452 23.5833 0 0 -26.10924 -6.385388 16.25908 24.69749
1.087722 100.2198 20.46421 -1.517179 4.284012 0.9166045 7.289396 -37.19052 4.892012 -0 14.12917 -0 -6.230863 -3.07718 -2.299525 -5.08148 15.18922 -17.44174 -0 11.16286 -0 0.4369384 -24.25119 16.78276 -0.2764753 -0.8571611 3.671323 1.239499 7.897677 -8.034702 1.176059 21.41615 8.472011 5.251883 -23.11112 8.513688 5.902127 -16.98829 10.75832 90.12828 37.38455 -24.97703 -0 0 12.90739 -9.078006 10.96362 4.147398 6.680349 -21.83039 -2.719791 -95.51794 37.69962 23.18462 0 0 -26.06761 -6.094757 15.81018 24.30298
1.179417 99.63387 25.48508 -1.815974 4.461977 1.544436 7.575946 -35.78317 4.415686 -0 13.49742 -0 -6.35711 -2.27831 -2.247967 -4.712052 16.02394 -16.89405 -0 15.23494 -0 -2.938502 -22.726 13.84961 -0.3791936 -0.7636013 3.636472 1.415433 7.938392 -8.075735 1.063231 21.42362 8.518223 5.170722 -23.2717 8.484645 5.865967 -16.92889 10.85722 90.06483 37.48964 -24.82684 -0 0 12.52375 -9.677983 11.29802 4.56704 6.458931 -21.80097 -2.796696 -95.04769 37.14648 22.82161 0 0 -25.89821 -5.812565 15.40561 23.88489
1.265452 99.49113 31.08541 -2.328464 4.366938 2.267305 7.988039 -32.68408 4.04526 -0 14.59945 -0 -6.661702 -2.337641 -2.317517 -4.07347 16.10046 -15.9245 -0 21.05173 -0 -6.993394 -19.48312 10.58719 -0.5277525 -0.673682 3.640514 1.551835 7.964771 -8.059028 0.951345 21.47495 8.546765 5.084997 -23.36272 8.427149 5.827707 -16.90902 10.94683 89.81389 37.65563 -24.42562 -0 0 12.2318 -10.51028 11.71047 5.100239 6.217334 -21.71732 -2.853993 -94.5899 36.53808 22.51062 0 0 -25.5767 -5.519079 15.05291 23.42793
1.350907 99.89266 37.13342 -3.03206 4.08532 2.82497 8.637494 -28.90274 3.980754 -0 16.50151 -0 -7.156373 -3.071192 -2.446947 -3.26029 14.7656 -14.14827 -0 28.97738 -0 -9.699938 -14.52055 8.342152 -0.7208742 -0.589667 3.713814 1.620703 7.987282 -7.965337 0.8438194 21.56701 8.560392 5.001902 -23.35584 8.337862 5.782692 -16.94877 11.02096 89.34151 37.92045 -23.7097 -0 0 12.06953 -11.66258 12.24784 5.778655 5.969032 -21.58711 -2.876163 -94.14478 35.83891 22.27531 0 0 -25.08678 -5.186599 14.75534 22.91606
1.453837 100.8074 43.43478 -3.597894 3.383729 2.889058 9.216421 -24.92083 4.203904 -0 17.99476 -0 -7.681605 -4.278459 -2.582919 -2.550421 11.60795 -11.87817 -0 39.17632 -0 -10.07237 -9.026609 7.921862 -0.9532542 -0.5136413 3.890554 1.593564 8.01957 -7.775321 0.746012 21.69071 8.562852 4.92651 -23.22539 8.21911 5.722932 -17.07305 11.07399 88.61266 38.30383 -22.61423 -0 0 12.08545 -13.22246 12.95459 6.636224 5.728462 -21.4161 -2.848278 -93.71525 35.00936 22.14689 0 0 -24.42139 -4.788463 14.50254 22.33767
1.605377 102.1001 49.71909 -3.445459 1.972297 2.328306 8.967529 -20.04353 4.283658 -0 17.93642 -0 -7.828973 -5.974767 -2.649477 -2.336735 6.590814 -10.04672 -0 50.46765 -0 -9.239829 -4.890226 8.859634 -1.217182 -0.4470333 4.194434 1.45591 8.070147 -7.475565 0.6657788 21.83441 8.553745 4.854449 -22.96297 8.082232 5.637884 -17.30661 11.10454 87.59369 38.76684 -21.09029 -0 0 12.33725 -15.2239 13.83339 7.693196 5.50037 -21.19163 -2.764614 -93.32023 34.03269 22.16846 0 0 -23.5806 -4.325899 14.26962 21.70377
1.803387 103.5629 55.72676 -2.329036 0.05519898 1.422615 7.554548 -13.70412 3.907739 -0 15.92537 -0 -7.31522 -7.820761 -2.540914 -2.721538 0.1437586 -9.098462 -0 59.74347 -0 -8.676528 -3.290639 10.22796 -1.504717 -0.3889956 4.621472 1.223545 8.133309 -7.067239 0.6114161 21.98933 8.522936 4.76813 -22.59293 7.944056 5.518204 -17.66321 11.11995 86.26763 39.18724 -19.13538 -0 0 12.87559 -17.58249 14.80305 8.931993 5.269091 -20.87286 -2.63708 -93.00169 32.9428 22.38952 0 0 -22.56942 -3.850272 14.02179 21.06022
1.999348 104.9209 61.35353 -0.7251255 -1.819771 0.6001989 5.679409 -6.724065 3.36386 -0 12.85062 -0 -6.338045 -9.127624 -2.271842 -3.173861 -6.80208 -8.484912 -0 63.78561 -0 -8.467038 -3.781868 11.62502 -1.806283 -0.3355675 5.139628 0.9404098 8.192189 -6.571071 0.5871819 22.14915 8.452465 4.646519 -22.169 7.814675 5.360775 -18.13658 11.13553 84.66556 39.40196 -16.82259 -0 0 13.71617 -20.08853 15.7091 10.28344 5.005148 -20.41284 -2.491628 -92.80859 31.81792 22.8448 0 0 -21.40748 -3.444874 13.72291 20.47319
2.159788 105.8851 66.67464 0.5864905 -3.298585 0.02274324 4.319187 -0.485308 3.041051 -0 10.12128 -0 -5.328956 -9.793999 -1.999533 -2.924856 -13.23503 -7.45214 -0 61.50994 -0 -7.962434 -5.007824 13.18323 -2.106344 -0.2822201 5.709526 0.6535938 8.236668 -6.023785 0.5906086 22.30226 8.328522 4.481219 -21.74834 7.690458 5.169775 -18.70161 11.16662 82.89206 39.29801 -14.30483 -0 0 14.82046 -22.49586 16.40521 11.64596 4.6898 -19.80329 -2.352723 -92.76184 30.73134 23.52631 0 0 -20.14702 -3.168946 13.34038 19.99195
